<svg xmlns="http://www.w3.org/2000/svg" version="1.1" xmlns:xlink="http://www.w3.org/1999/xlink" width="1000" height="1000"><style>
    #light-icon {
      display: inline;
    }
    #dark-icon {
      display: none;
    }

    @media (prefers-color-scheme: dark) {
      #light-icon {
        display: none;
      }
      #dark-icon {
        display: inline;
      }
    }
  </style><g id="light-icon"><svg xmlns="http://www.w3.org/2000/svg" version="1.1" xmlns:xlink="http://www.w3.org/1999/xlink" width="1000" height="1000"><g clip-path="url(#SvgjsClipPath1380)"><rect width="1000" height="1000" fill="#131212"></rect><g transform="matrix(2.5,0,0,2.5,0,0)"><svg xmlns="http://www.w3.org/2000/svg" xmlns:xlink="http://www.w3.org/1999/xlink" width="400" height="400" viewBox="0 0 400 400"><defs><style>.a{clip-path:url(#b);}.b{fill:none;stroke:#707070;}.c{fill:#d17724;}.d{fill:#131212;}</style><clipPath id="b"><rect width="400" height="400"></rect></clipPath><clipPath id="SvgjsClipPath1380"><rect width="1000" height="1000" x="0" y="0" rx="100" ry="100"></rect></clipPath></defs><g id="a" class="a"><rect class="d" width="400" height="400"></rect><path class="b" d="M25.983,339.44"></path><path class="c" d="M119.792,143.746q0,43.724-18.519,67.987T51.719,236q-14.4,0-23.663-4.115V203.417q9.259,6.687,24.006,6.687,38.923,0,38.923-66.015V-14h28.807Z" transform="translate(144.001 89.004)"></path><path class="c" d="M219.008,231.881H187.115l-26.063-68.93H56.8l-24.52,68.93H.215L94.522-14h29.835Zm-67.387-94.822L113.041,32.292q-1.886-5.144-3.772-16.461h-.686a91.84,91.84,0,0,1-3.944,16.461L66.4,137.059Z" transform="translate(44.785 93.119)"></path><path class="c" d="M32.278,231.881H.215L94.518-14h29.834Z" transform="translate(230.643 93.119)"></path></g></svg></g></g></svg></g><g id="dark-icon"><svg xmlns="http://www.w3.org/2000/svg" version="1.1" xmlns:xlink="http://www.w3.org/1999/xlink" width="1000" height="1000"><g clip-path="url(#SvgjsClipPath1381)"><rect width="1000" height="1000" fill="#131212"></rect><g transform="matrix(2.5,0,0,2.5,0,0)"><svg xmlns="http://www.w3.org/2000/svg" xmlns:xlink="http://www.w3.org/1999/xlink" width="400" height="400" viewBox="0 0 400 400"><defs><style>.a{clip-path:url(#b);}.b{fill:none;stroke:#707070;}.c{fill:#d17724;}.d{fill:#131212;}</style><clipPath id="b"><rect width="400" height="400"></rect></clipPath><clipPath id="SvgjsClipPath1381"><rect width="1000" height="1000" x="0" y="0" rx="100" ry="100"></rect></clipPath></defs><g id="a" class="a"><rect class="d" width="400" height="400"></rect><path class="b" d="M25.983,339.44"></path><path class="c" d="M119.792,143.746q0,43.724-18.519,67.987T51.719,236q-14.4,0-23.663-4.115V203.417q9.259,6.687,24.006,6.687,38.923,0,38.923-66.015V-14h28.807Z" transform="translate(144.001 89.004)"></path><path class="c" d="M219.008,231.881H187.115l-26.063-68.93H56.8l-24.52,68.93H.215L94.522-14h29.835Zm-67.387-94.822L113.041,32.292q-1.886-5.144-3.772-16.461h-.686a91.84,91.84,0,0,1-3.944,16.461L66.4,137.059Z" transform="translate(44.785 93.119)"></path><path class="c" d="M32.278,231.881H.215L94.518-14h29.834Z" transform="translate(230.643 93.119)"></path></g></svg></g></g></svg></g></svg>